<?xml version="1.0" standalone="no"?>
<!DOCTYPE svg PUBLIC "-//W3C//DTD SVG 20010904//EN"
 "http://www.w3.org/TR/2001/REC-SVG-20010904/DTD/svg10.dtd">
<svg version="1.0" xmlns="http://www.w3.org/2000/svg"
 width="1163.000000pt" height="1280.000000pt" viewBox="0 0 1163.000000 1280.000000"
 preserveAspectRatio="xMidYMid meet">
<metadata>
Created by potrace 1.15, written by Peter Selinger 2001-2017
</metadata>
<g transform="translate(0.000000,1280.000000) scale(0.100000,-0.100000)"
fill="#9e9e9e" stroke="none">
<path d="M7107 11557 c-47 -57 -48 -81 -8 -95 24 -9 31 -18 36 -49 11 -65 37
-135 77 -212 28 -54 38 -82 33 -100 -8 -37 -58 -79 -102 -86 -21 -4 -55 -15
-76 -26 -22 -10 -43 -17 -47 -14 -4 3 -40 69 -79 147 -39 79 -78 152 -88 164
-31 35 -124 94 -149 94 -21 0 -24 -5 -24 -36 0 -29 11 -48 59 -104 61 -71 118
-177 150 -280 18 -58 18 -58 -3 -68 -64 -32 -86 -24 -86 29 0 31 -57 194 -90
259 -13 25 -34 60 -48 78 -23 31 -26 32 -43 16 -10 -9 -32 -41 -49 -70 -17
-30 -35 -54 -40 -54 -6 0 -10 -5 -10 -12 0 -6 -6 -19 -14 -27 -22 -25 -37
-113 -26 -152 17 -58 59 -109 106 -130 50 -22 50 -20 -15 -91 -19 -21 -44 -54
-55 -74 -16 -28 -33 -40 -73 -54 -84 -29 -169 -86 -230 -156 -57 -63 -123
-166 -123 -191 0 -32 93 -2 165 52 92 68 165 113 165 101 0 -8 -8 -37 -17 -66
-14 -43 -23 -55 -51 -67 -25 -11 -33 -19 -30 -36 4 -28 34 -34 60 -10 12 10
19 13 17 8 -2 -6 -13 -34 -24 -63 -12 -33 -42 -79 -81 -122 -101 -112 -147
-268 -148 -500 -1 -98 1 -110 33 -180 18 -41 43 -102 55 -135 13 -33 29 -72
37 -87 32 -61 186 -222 288 -300 58 -45 134 -108 168 -140 34 -31 94 -73 135
-94 40 -20 91 -49 113 -64 53 -36 191 -105 235 -118 88 -26 256 -84 373 -130
71 -28 166 -58 210 -67 45 -9 125 -27 177 -41 52 -13 109 -24 127 -24 39 0
222 59 299 97 30 14 71 40 92 58 20 17 51 36 67 44 17 7 66 36 110 65 44 29
114 74 155 101 109 70 156 119 202 210 47 93 81 246 82 370 0 87 -20 351 -29
364 -2 5 -9 40 -15 77 -5 38 -18 128 -29 199 -10 72 -22 164 -26 205 -9 103
-32 216 -56 269 -10 24 -19 51 -19 61 0 39 -68 177 -112 228 -15 18 -44 64
-63 101 -28 57 -53 86 -145 169 l-111 100 -112 35 c-109 35 -233 57 -326 57
l-46 1 31 13 c28 12 74 63 74 81 0 4 -16 -3 -35 -15 -32 -19 -39 -20 -92 -9
-142 29 -398 31 -466 4 -20 -8 -63 -15 -93 -15 l-56 0 26 35 c19 25 29 54 36
107 15 120 20 110 -97 226 -111 110 -177 162 -203 161 -8 0 -23 -10 -33 -22z"/>
<path d="M5700 9128 c-379 -24 -776 -107 -1034 -215 -314 -131 -536 -310 -631
-508 -51 -106 -65 -166 -65 -278 1 -508 629 -1036 1610 -1352 202 -65 482
-135 660 -165 435 -73 573 -85 1005 -84 385 0 461 6 749 55 522 88 954 299
1144 556 96 131 133 238 134 384 0 166 -57 319 -183 489 -58 80 -253 280 -271
280 -5 0 -37 -22 -72 -49 -61 -47 -161 -95 -256 -123 -73 -21 -341 -15 -490
11 -286 50 -658 161 -935 281 -105 45 -124 54 -265 125 -228 114 -447 250
-565 350 -69 59 -178 173 -203 212 l-27 43 -85 -1 c-47 -1 -146 -6 -220 -11z"/>
<path d="M3680 7730 c-486 -101 -844 -215 -1180 -376 -126 -61 -290 -155 -370
-213 -178 -129 -321 -290 -385 -435 -48 -109 -76 -288 -63 -413 21 -211 193
-449 462 -644 l108 -79 89 0 88 0 148 -73 c81 -39 166 -80 189 -90 495 -211
1129 -377 1804 -471 579 -82 1061 -111 1680 -103 438 6 600 14 925 47 803 82
1474 243 2000 479 81 37 98 41 172 41 l81 0 109 71 c239 158 412 357 463 534
18 64 40 215 40 281 0 178 -100 376 -279 552 -73 71 -258 219 -264 211 -2 -2
-24 -35 -49 -74 -152 -232 -479 -422 -943 -549 -477 -130 -1083 -181 -1690
-141 -191 12 -422 35 -520 50 -16 3 -88 14 -160 26 -403 64 -856 190 -1195
332 -510 213 -846 470 -990 758 -41 81 -73 209 -68 273 1 22 -2 41 -7 42 -6 2
-93 -14 -195 -36z"/>
<path d="M1843 5443 c26 -81 43 -126 212 -553 32 -80 72 -183 90 -230 87 -229
149 -389 182 -468 19 -48 46 -116 59 -152 12 -36 31 -87 42 -115 58 -147 137
-350 163 -420 17 -44 49 -125 71 -180 23 -55 51 -127 63 -160 13 -33 50 -130
83 -215 140 -362 165 -427 182 -470 27 -69 120 -307 150 -385 15 -38 42 -108
59 -155 55 -145 59 -150 129 -178 35 -13 65 -22 67 -20 3 3 -7 33 -21 69 -14
35 -43 111 -64 169 -21 58 -62 166 -90 240 -65 168 -149 392 -199 530 -39 106
-60 162 -158 412 -29 75 -53 142 -53 148 0 6 -18 55 -39 108 -22 53 -49 122
-60 152 -11 30 -41 108 -66 173 -25 65 -45 122 -45 127 0 6 -24 72 -54 148
-69 175 -140 362 -181 477 -18 50 -58 154 -89 232 -31 78 -56 148 -56 154 0 6
-11 37 -24 68 -27 61 -51 124 -116 304 -24 64 -48 121 -54 127 -12 9 -173 80
-183 80 -3 0 -3 -8 0 -17z"/>
<path d="M9918 5348 c-55 -23 -98 -47 -101 -57 -5 -15 -75 -210 -118 -331 -11
-30 -33 -93 -49 -140 -15 -47 -54 -155 -85 -240 -69 -186 -131 -360 -191 -535
-25 -71 -49 -139 -54 -150 -8 -17 -142 -388 -211 -585 -12 -36 -36 -101 -52
-145 -16 -44 -52 -145 -79 -225 -45 -130 -69 -198 -112 -310 -25 -65 -64 -174
-125 -345 -32 -93 -68 -195 -79 -225 -61 -166 -113 -322 -110 -326 4 -3 127
43 136 51 5 5 102 265 112 300 8 30 151 412 217 580 19 50 41 108 48 130 7 22
26 76 43 120 58 157 204 552 236 640 19 50 38 104 44 120 6 17 40 109 77 205
36 96 75 198 85 225 15 43 154 422 242 660 16 44 40 109 53 145 12 36 44 119
70 185 59 152 107 286 103 290 -2 2 -46 -15 -100 -37z"/>
<path d="M2120 5336 c0 -2 14 -36 31 -77 17 -41 41 -108 54 -149 12 -41 37
-111 55 -155 17 -44 49 -130 70 -191 21 -61 49 -137 63 -170 13 -32 36 -93 50
-134 14 -41 39 -111 55 -155 16 -44 50 -138 76 -210 26 -71 54 -148 63 -170 8
-22 35 -94 58 -160 24 -66 69 -187 100 -270 31 -82 70 -188 86 -235 42 -118
150 -416 214 -590 30 -80 77 -208 105 -285 28 -77 64 -176 82 -220 17 -44 46
-125 64 -180 19 -55 49 -138 67 -184 33 -84 33 -85 82 -102 89 -31 88 -34 38
109 -24 70 -50 145 -58 167 -24 73 -122 348 -170 480 -26 72 -62 173 -80 225
-18 52 -52 149 -75 215 -24 66 -69 197 -102 290 -33 94 -76 215 -95 270 -20
55 -46 129 -58 165 -13 36 -42 117 -65 180 -23 63 -82 230 -131 370 -48 140
-120 345 -160 455 -63 178 -132 372 -199 565 -12 36 -27 70 -34 77 -19 20
-186 82 -186 69z"/>
<path d="M9655 5245 c-71 -25 -92 -37 -98 -56 -8 -24 -114 -341 -208 -619 -26
-80 -143 -426 -259 -770 -116 -344 -220 -652 -230 -685 -10 -33 -73 -220 -139
-415 -67 -195 -149 -438 -182 -540 -34 -102 -83 -250 -110 -329 -27 -79 -49
-147 -49 -152 0 -4 30 2 68 15 l67 23 28 79 c15 43 34 97 41 119 15 42 164
472 248 710 27 77 68 196 92 265 24 69 76 217 116 330 81 232 168 484 200 580
12 36 28 83 37 105 14 40 105 294 168 475 18 52 56 163 84 245 28 83 60 173
71 200 47 125 151 436 148 444 -1 5 -43 -6 -93 -24z"/>
<path d="M2416 5174 c20 -53 143 -412 234 -684 5 -14 36 -106 70 -205 34 -99
82 -236 105 -305 24 -69 57 -163 74 -210 18 -47 42 -119 55 -160 13 -41 76
-228 141 -415 64 -187 125 -365 135 -395 10 -30 57 -167 105 -305 48 -137 104
-302 125 -365 54 -164 151 -442 160 -460 7 -14 99 -50 126 -50 5 0 -84 282
-198 628 -114 345 -251 758 -303 917 -53 160 -116 351 -142 425 -25 74 -58
176 -74 225 -15 50 -49 153 -75 230 -26 77 -68 203 -94 280 -26 77 -100 300
-164 496 l-117 356 -82 28 c-45 16 -88 30 -94 33 -8 2 -3 -21 13 -64z"/>
<path d="M9405 5156 l-90 -31 -57 -175 c-111 -341 -289 -908 -314 -1000 -8
-30 -32 -107 -53 -170 -21 -63 -57 -176 -81 -250 -23 -74 -61 -196 -85 -270
-44 -139 -93 -293 -190 -605 -31 -99 -62 -198 -70 -220 -12 -36 -30 -92 -126
-400 -15 -49 -46 -151 -69 -225 -23 -74 -46 -146 -51 -159 -5 -13 -8 -26 -5
-28 3 -3 34 5 69 16 l64 22 27 82 c14 45 73 224 130 397 57 173 120 369 141
435 21 66 100 307 176 535 75 228 178 543 229 700 51 157 152 465 225 685 166
503 225 688 222 690 -1 1 -42 -12 -92 -29z"/>
<path d="M2660 5143 c0 -5 27 -91 60 -193 34 -102 86 -264 117 -360 31 -96 84
-260 118 -365 34 -104 81 -251 104 -325 24 -74 49 -153 56 -175 13 -38 88
-271 139 -435 13 -41 46 -145 74 -230 28 -85 78 -243 112 -350 34 -107 77
-240 95 -295 18 -55 61 -188 94 -295 34 -107 85 -267 114 -355 l52 -160 58
-19 c32 -10 60 -16 63 -13 7 6 -31 140 -86 307 -21 63 -44 135 -50 160 -6 25
-35 122 -65 215 -29 94 -77 247 -105 340 -28 94 -69 224 -90 290 -46 145 -108
343 -150 485 -17 58 -42 139 -55 180 -13 41 -37 120 -54 175 -62 201 -120 391
-139 450 -39 122 -82 262 -108 350 -25 86 -88 287 -150 479 l-29 90 -85 28
c-98 32 -90 30 -90 21z"/>
<path d="M9151 5074 c-41 -13 -78 -27 -82 -31 -8 -8 -137 -435 -170 -563 -11
-41 -30 -109 -43 -150 -14 -41 -36 -119 -50 -172 -14 -53 -39 -139 -55 -190
-16 -51 -45 -149 -66 -218 -20 -69 -45 -152 -55 -185 -16 -54 -41 -139 -146
-495 -18 -63 -54 -187 -80 -275 -50 -173 -64 -222 -149 -510 -31 -104 -83
-282 -116 -395 -32 -113 -66 -229 -75 -258 -8 -30 -13 -56 -11 -59 4 -3 103
22 124 32 2 1 53 163 154 490 33 108 97 318 133 440 18 61 50 164 71 230 20
66 43 140 50 165 12 42 52 171 126 410 70 227 155 506 293 960 25 80 58 188
75 240 16 52 41 133 55 180 20 69 64 212 110 358 9 27 3 27 -93 -4z"/>
<path d="M2947 4958 c89 -289 197 -648 210 -698 8 -30 37 -129 65 -220 64
-211 91 -302 124 -420 15 -52 49 -165 75 -250 26 -85 73 -240 104 -345 31
-104 79 -264 107 -355 28 -91 57 -190 64 -220 8 -30 34 -118 58 -195 24 -77
63 -205 86 -285 44 -150 79 -266 109 -360 17 -54 18 -55 76 -72 32 -10 60 -16
62 -14 3 2 -10 53 -27 113 -18 59 -38 131 -45 158 -7 28 -34 122 -60 210 -26
88 -58 201 -71 250 -14 50 -31 108 -39 130 -8 22 -18 58 -24 80 -5 22 -30 112
-55 200 -72 249 -137 475 -154 530 -8 28 -25 88 -37 135 -13 47 -49 173 -80
280 -31 107 -63 218 -70 245 -8 28 -19 63 -25 80 -6 16 -19 64 -29 105 -10 41
-55 201 -100 355 -45 154 -104 356 -130 450 l-48 169 -89 28 c-49 15 -89 28
-90 28 -1 0 14 -51 33 -112z"/>
<path d="M8910 5002 c-47 -13 -86 -25 -88 -27 -2 -1 -20 -72 -42 -157 -21 -85
-49 -192 -63 -239 -14 -46 -37 -131 -52 -189 -15 -58 -41 -152 -57 -210 -60
-216 -77 -278 -103 -375 -14 -55 -36 -131 -47 -170 -11 -38 -53 -194 -94 -345
-40 -151 -78 -291 -84 -310 -5 -19 -30 -111 -55 -205 -41 -154 -72 -267 -111
-410 -142 -513 -225 -827 -221 -831 3 -3 31 0 62 7 66 15 60 5 111 184 18 66
38 134 43 150 5 17 30 107 56 200 26 94 60 212 76 264 16 52 29 99 29 106 0 7
18 71 40 141 21 71 43 147 49 169 8 35 193 687 296 1040 19 66 68 242 110 390
120 427 145 514 175 610 33 106 63 225 59 229 -2 1 -42 -8 -89 -22z"/>
<path d="M3170 4983 c0 -6 7 -30 15 -54 9 -24 23 -75 31 -114 14 -62 64 -240
110 -395 10 -30 27 -95 39 -145 12 -49 36 -139 54 -200 17 -60 47 -168 67
-240 20 -71 54 -193 76 -270 22 -77 42 -151 45 -165 5 -27 52 -198 132 -480
27 -96 61 -218 74 -270 14 -52 44 -160 67 -240 23 -80 50 -176 60 -215 9 -38
32 -122 49 -185 18 -63 48 -171 67 -240 19 -69 42 -152 51 -185 9 -33 20 -64
25 -70 10 -11 110 -36 117 -29 4 4 -14 74 -104 414 -13 47 -46 173 -74 280
-29 107 -60 227 -71 265 -10 39 -42 158 -70 265 -28 107 -67 251 -85 320 -101
382 -160 604 -200 760 -55 212 -93 353 -140 525 -19 72 -43 159 -51 195 -9 36
-33 130 -55 210 -21 80 -43 164 -49 187 -10 39 -13 43 -65 58 -83 24 -115 29
-115 18z"/>
<path d="M8666 4937 l-80 -22 -103 -410 c-56 -225 -114 -455 -127 -510 -13
-55 -86 -343 -161 -640 -75 -297 -145 -576 -154 -620 -10 -44 -30 -123 -44
-176 -15 -53 -33 -125 -40 -160 -8 -35 -62 -253 -121 -483 -58 -231 -104 -422
-101 -424 8 -8 113 18 123 31 5 7 16 41 25 77 8 36 22 92 32 125 9 33 48 184
87 335 122 472 275 1055 358 1360 21 80 55 206 74 280 19 74 47 180 61 235 14
55 46 179 71 275 24 96 55 211 69 255 13 44 27 98 30 120 4 22 16 71 27 110
26 90 68 248 68 258 0 9 -2 9 -94 -16z"/>
<path d="M3416 4903 c4 -16 15 -62 26 -103 11 -41 42 -163 69 -270 27 -107 77
-301 111 -430 33 -129 67 -262 74 -295 7 -33 25 -105 39 -160 38 -146 159
-618 344 -1345 44 -173 94 -369 111 -435 18 -66 34 -133 37 -150 6 -32 61
-237 65 -241 2 -1 29 -9 61 -17 48 -13 57 -13 57 -1 0 8 -18 85 -39 171 -40
157 -76 308 -126 518 -15 61 -47 193 -71 295 -25 102 -60 248 -79 325 -42 174
-177 730 -255 1050 -32 132 -77 317 -99 410 -23 94 -51 208 -62 255 -12 47
-30 121 -39 165 -28 124 -59 238 -68 246 -7 6 -138 39 -155 39 -4 0 -4 -12 -1
-27z"/>
<path d="M8465 4889 c-113 -27 -114 -27 -121 -67 -3 -20 -17 -80 -30 -132 -13
-52 -37 -156 -54 -230 -55 -245 -142 -625 -220 -960 -30 -126 -79 -346 -130
-570 -11 -52 -35 -153 -51 -224 -17 -71 -37 -159 -44 -195 -7 -36 -29 -136
-49 -221 -21 -85 -45 -191 -56 -235 -10 -44 -35 -154 -56 -245 -20 -91 -47
-208 -59 -260 -13 -52 -22 -96 -20 -98 2 -2 30 2 64 9 66 14 64 11 86 114 4
17 22 93 41 170 18 77 51 214 73 305 22 91 60 248 85 350 43 176 97 400 152
630 14 58 45 186 69 285 46 187 93 382 215 890 134 556 160 663 166 679 7 18
-1 19 -61 5z"/>
<path d="M3654 4853 c3 -10 14 -59 25 -110 12 -50 36 -156 55 -235 19 -78 46
-197 61 -263 14 -66 39 -174 55 -240 16 -66 52 -219 80 -340 28 -121 57 -247
65 -280 8 -33 28 -121 45 -195 17 -74 48 -209 70 -300 22 -91 44 -185 49 -210
6 -25 24 -106 41 -180 17 -74 40 -171 50 -215 10 -44 32 -138 49 -210 16 -71
44 -191 61 -265 52 -229 80 -342 90 -360 8 -15 107 -46 117 -37 2 3 -1 24 -6
48 -6 24 -24 107 -41 184 -17 77 -37 167 -45 200 -24 107 -53 238 -80 360 -14
66 -50 230 -80 365 -29 135 -65 301 -80 370 -14 69 -39 181 -55 250 -63 269
-166 734 -191 870 -6 30 -26 118 -44 195 -18 77 -36 156 -40 175 -15 76 -88
405 -91 409 -4 5 -125 30 -147 31 -13 0 -17 -5 -13 -17z"/>
<path d="M8203 4831 c-39 -9 -74 -19 -78 -22 -5 -6 -36 -147 -80 -364 -7 -38
-30 -146 -50 -240 -20 -93 -49 -233 -64 -310 -38 -188 -96 -464 -126 -605 -26
-119 -106 -512 -130 -635 -24 -125 -46 -228 -65 -315 -11 -47 -28 -128 -39
-180 -44 -214 -92 -443 -122 -583 -17 -81 -29 -150 -26 -154 4 -3 32 1 64 8
66 16 55 -8 108 234 19 88 53 241 75 340 23 99 52 232 65 295 14 63 34 156 45
205 12 50 30 131 40 180 11 50 42 194 70 320 28 127 62 280 75 340 13 61 37
173 54 250 17 77 43 192 56 255 14 63 30 131 35 150 5 19 21 91 35 160 14 69
39 186 56 260 29 129 76 345 86 403 3 15 1 26 -3 26 -5 -1 -41 -9 -81 -18z"/>
<path d="M3886 4821 c-2 -3 7 -56 20 -116 60 -268 97 -443 104 -480 9 -50 64
-316 85 -410 9 -38 27 -124 40 -190 23 -115 69 -329 100 -465 9 -36 26 -121
40 -190 13 -69 36 -179 50 -245 14 -66 37 -174 50 -240 13 -66 34 -163 45
-215 11 -52 36 -169 55 -260 43 -210 91 -434 114 -530 l18 -75 54 -11 c30 -6
55 -10 57 -9 5 4 -20 133 -113 600 -46 231 -127 641 -180 910 -53 270 -110
555 -126 635 -16 80 -47 235 -69 345 -22 110 -53 265 -69 344 -17 79 -47 232
-66 340 -20 108 -39 205 -44 216 -6 14 -27 23 -84 36 -43 9 -79 14 -81 10z"/>
<path d="M7980 4789 c-25 -5 -55 -12 -67 -14 -16 -4 -23 -15 -28 -47 -4 -24
-20 -110 -37 -193 -16 -82 -40 -215 -54 -295 -14 -80 -36 -199 -49 -265 -13
-67 -38 -197 -54 -290 -31 -179 -133 -730 -176 -950 -14 -71 -43 -227 -65
-345 -22 -118 -53 -289 -70 -380 -17 -91 -36 -192 -42 -225 -5 -33 -16 -91
-24 -130 -33 -171 -46 -257 -40 -263 4 -3 32 1 63 9 l57 14 94 470 c51 259 99
502 106 540 7 39 30 153 50 255 21 102 60 298 87 435 27 138 60 304 74 370 13
66 38 192 55 280 17 88 35 178 40 200 5 22 18 90 29 150 11 61 34 175 50 255
16 80 39 198 51 264 12 65 25 129 30 142 11 27 0 29 -80 13z"/>
<path d="M4120 4769 c0 -21 27 -173 65 -374 19 -99 55 -288 80 -420 25 -132
50 -258 55 -280 6 -22 17 -83 26 -135 8 -52 17 -97 20 -101 2 -4 9 -42 15 -85
5 -44 25 -155 44 -249 18 -93 41 -213 50 -265 10 -52 34 -183 55 -290 21 -107
44 -224 50 -260 12 -76 38 -210 90 -480 21 -107 48 -252 61 -322 23 -124 24
-127 51 -133 15 -3 42 -8 58 -11 37 -7 37 -10 5 166 -14 74 -34 194 -45 265
-11 72 -23 137 -25 145 -3 8 -16 78 -30 155 -13 77 -31 176 -39 220 -17 92
-46 258 -117 670 -27 160 -61 349 -74 420 -41 221 -76 415 -95 535 -10 63 -30
176 -43 250 -14 74 -42 230 -62 345 -21 116 -39 213 -41 216 -2 4 -23 9 -46
13 -24 4 -58 9 -75 12 -24 5 -33 3 -33 -7z"/>
<path d="M7737 4747 c-77 -11 -69 3 -92 -152 -8 -55 -26 -163 -40 -240 -14
-77 -30 -174 -35 -215 -6 -41 -21 -138 -34 -215 -46 -260 -76 -439 -101 -600
-14 -88 -39 -239 -55 -335 -16 -96 -47 -285 -69 -420 -22 -135 -58 -357 -80
-495 -71 -442 -100 -619 -106 -666 l-7 -46 61 10 60 10 11 51 c11 53 59 327
104 596 14 85 30 178 36 205 5 28 21 115 35 195 14 80 37 206 50 280 14 74 34
189 45 255 12 66 34 192 50 280 17 88 46 252 65 365 19 113 48 279 64 370 151
851 140 780 122 779 -9 -1 -46 -6 -84 -12z"/>
<path d="M4340 4732 c0 -5 9 -54 19 -108 24 -120 48 -262 61 -358 6 -39 19
-118 30 -176 10 -58 26 -150 34 -205 8 -55 26 -167 40 -250 14 -82 48 -287 76
-455 28 -168 60 -350 70 -405 11 -55 22 -125 25 -155 4 -30 13 -91 20 -135 8
-44 33 -188 55 -320 22 -132 49 -292 60 -355 23 -134 47 -276 62 -375 6 -38
13 -73 17 -76 3 -4 30 -10 60 -14 l54 -7 -6 43 c-3 24 -15 103 -26 174 -11 72
-29 189 -41 260 -11 72 -27 180 -36 240 -8 61 -28 191 -44 290 -49 298 -134
843 -150 960 -6 44 -17 114 -25 155 -8 41 -17 102 -20 135 -4 33 -13 101 -22
150 -24 148 -91 578 -118 760 -31 207 -32 212 -48 218 -31 12 -147 19 -147 9z"/>
<path d="M7505 4713 c-11 -2 -30 -6 -42 -8 -18 -4 -23 -14 -28 -63 -4 -31 -15
-109 -25 -172 -11 -63 -24 -158 -30 -210 -6 -52 -22 -162 -35 -245 -13 -82
-35 -235 -50 -340 -14 -104 -37 -264 -51 -355 -13 -91 -36 -248 -49 -350 -14
-102 -32 -230 -41 -285 -8 -55 -24 -165 -34 -245 -11 -80 -27 -192 -35 -250
-8 -58 -23 -170 -34 -250 -32 -228 -51 -360 -61 -420 -5 -30 -12 -83 -16 -118
-7 -63 -7 -63 17 -58 13 3 41 7 61 11 43 7 39 -7 73 225 13 91 31 206 39 255
9 50 27 169 41 265 15 96 30 200 35 230 5 30 18 116 29 190 24 158 60 387 96
620 15 91 33 210 40 265 8 55 19 125 25 155 5 30 23 145 40 255 16 110 41 270
55 355 14 85 36 235 50 334 13 98 27 187 30 197 6 17 1 19 -37 18 -24 -1 -52
-3 -63 -6z"/>
<path d="M4564 4694 c3 -11 14 -84 26 -164 11 -80 29 -203 40 -275 11 -71 31
-211 45 -310 14 -99 42 -286 61 -415 19 -129 39 -271 45 -315 13 -100 25 -185
95 -655 30 -206 62 -424 70 -485 8 -60 21 -150 29 -200 8 -49 29 -189 46 -310
16 -121 33 -223 37 -226 4 -4 31 -9 60 -11 l53 -5 -6 41 c-2 23 -11 91 -19
151 -8 61 -22 166 -31 235 -9 69 -27 202 -40 295 -13 94 -31 231 -40 305 -9
74 -23 180 -31 235 -8 55 -21 152 -29 215 -8 63 -26 198 -40 300 -14 102 -33
235 -41 295 -8 61 -26 196 -39 300 -13 105 -40 305 -59 445 -19 140 -42 321
-52 402 -20 167 -7 150 -128 164 -54 6 -58 5 -52 -12z"/>
<path d="M4789 4680 c-3 -14 4 -81 27 -240 13 -96 31 -240 39 -320 8 -80 20
-176 25 -215 6 -38 24 -185 41 -325 16 -140 34 -284 40 -320 5 -36 28 -216 50
-400 22 -184 58 -474 79 -645 21 -170 48 -391 60 -490 32 -277 47 -392 55
-404 3 -6 31 -11 60 -11 54 0 54 0 50 28 -3 15 -14 110 -25 212 -12 102 -25
223 -31 270 -5 47 -19 168 -29 270 -11 102 -26 241 -35 310 -8 69 -22 193 -30
275 -9 83 -18 157 -21 166 -2 8 -13 105 -24 215 -27 281 -58 570 -75 699 -8
61 -28 238 -44 395 -17 157 -35 317 -40 355 -6 39 -12 91 -16 116 l-6 46 -74
9 c-41 5 -75 7 -76 4z"/>
<path d="M7253 4683 c-38 -5 -38 -5 -53 -148 -7 -60 -22 -193 -35 -295 -13
-102 -26 -219 -29 -260 -4 -41 -15 -138 -26 -215 -23 -166 -66 -511 -79 -645
-6 -52 -19 -169 -30 -260 -12 -91 -27 -223 -36 -295 -30 -258 -66 -552 -80
-670 -32 -248 -65 -531 -65 -548 0 -14 9 -17 48 -17 26 0 53 4 60 8 14 9 24
65 46 252 9 69 22 175 31 235 8 61 24 182 35 270 11 88 32 237 45 330 14 94
34 244 45 335 11 91 31 246 44 345 13 99 29 218 35 265 15 110 46 354 71 550
11 85 24 176 30 202 5 26 16 116 25 200 12 127 32 263 50 351 3 15 -4 17 -48
15 -29 0 -66 -3 -84 -5z"/>
<path d="M7045 4661 l-50 -6 -22 -225 c-12 -124 -33 -344 -47 -490 -14 -146
-30 -310 -35 -365 -6 -55 -17 -167 -25 -250 -41 -395 -51 -491 -101 -1040 -8
-88 -17 -171 -20 -185 -3 -14 -14 -122 -25 -240 -11 -118 -24 -262 -30 -320
-5 -58 -12 -133 -15 -167 l-6 -63 29 0 c16 0 43 3 60 6 29 6 30 9 41 83 13 93
28 223 41 356 12 130 54 504 85 770 14 116 31 273 40 350 8 77 24 226 36 330
36 332 48 447 58 550 6 55 24 219 41 365 17 146 37 321 45 390 8 69 15 133 15
143 0 18 -17 20 -115 8z"/>
<path d="M5003 4639 c3 -13 22 -186 42 -384 19 -198 38 -371 40 -385 3 -14 12
-99 20 -190 14 -156 33 -343 90 -895 14 -132 30 -292 35 -355 5 -63 16 -176
24 -250 9 -74 25 -232 37 -350 12 -118 29 -285 38 -370 l16 -155 59 -3 59 -3
-7 73 c-16 173 -37 408 -56 608 -11 118 -23 244 -26 280 -3 36 -9 106 -14 155
-5 50 -21 225 -35 390 -26 303 -35 410 -55 610 -14 146 -47 509 -65 715 -29
322 -47 515 -49 517 -2 2 -38 6 -81 10 l-78 6 6 -24z"/>
<path d="M6824 4643 l-51 -4 -7 -92 c-4 -51 -18 -236 -31 -412 -13 -176 -29
-383 -35 -460 -6 -77 -19 -252 -30 -390 -31 -390 -39 -499 -50 -665 -6 -85
-17 -231 -25 -325 -8 -93 -19 -237 -25 -320 -12 -186 -38 -540 -45 -618 l-5
-57 48 0 c26 0 52 4 59 8 19 12 22 44 68 582 14 162 29 338 35 390 5 52 17
185 25 295 9 110 20 236 25 280 5 44 16 172 25 285 16 215 17 227 65 725 16
171 36 405 45 520 8 116 17 222 20 238 5 30 13 28 -111 20z"/>
<path d="M5220 4633 c0 -13 28 -351 39 -473 6 -63 18 -209 26 -325 37 -496 97
-1253 115 -1445 5 -58 17 -193 25 -300 8 -107 19 -244 24 -305 6 -60 15 -177
21 -260 6 -82 13 -169 16 -192 l5 -43 55 0 54 0 0 38 c0 41 -41 668 -65 987
-8 110 -17 243 -20 295 -6 95 -21 314 -50 705 -8 116 -22 318 -30 450 -8 132
-19 290 -25 350 -5 61 -14 200 -21 310 -7 130 -15 202 -22 207 -16 10 -147 10
-147 1z"/>
<path d="M5433 4599 c4 -19 22 -306 41 -639 20 -333 40 -679 46 -770 5 -91 17
-282 25 -425 8 -143 22 -377 30 -520 8 -143 20 -336 25 -430 6 -93 15 -249 20
-345 7 -117 14 -177 23 -182 6 -4 34 -8 61 -8 l49 0 -7 198 c-4 108 -13 307
-21 442 -8 135 -19 371 -25 525 -6 154 -15 359 -21 455 -5 96 -14 279 -19 405
-33 808 -57 1306 -64 1312 -2 2 -40 6 -86 10 l-83 6 6 -34z"/>
<path d="M6556 4618 c-3 -7 -7 -67 -10 -133 -4 -66 -15 -271 -26 -455 -11
-184 -29 -508 -40 -720 -33 -638 -49 -947 -70 -1320 -10 -195 -22 -418 -25
-495 -3 -77 -9 -155 -12 -173 l-5 -33 63 3 64 3 22 310 c12 171 27 398 33 505
6 107 18 283 26 390 8 107 21 308 29 445 8 138 21 345 30 460 8 116 19 278 25
360 5 83 17 260 25 395 9 135 20 296 23 358 l7 112 -78 0 c-53 0 -79 -4 -81
-12z"/>
<path d="M5665 4448 c3 -95 10 -276 15 -403 6 -126 17 -435 25 -685 8 -250 17
-489 20 -530 5 -64 18 -472 40 -1185 3 -99 8 -222 11 -272 l6 -93 60 0 60 0
-6 278 c-11 460 -26 1141 -36 1607 -24 1119 -32 1431 -35 1443 -3 8 -29 12
-85 12 l-81 0 6 -172z"/>
<path d="M5885 4610 c-5 -8 30 -2656 41 -3078 l6 -252 59 0 59 0 0 1664 0
1664 -81 4 c-45 2 -82 1 -84 -2z"/>
<path d="M6164 4611 l-61 -6 -2 -595 c-1 -327 -6 -881 -11 -1230 -5 -349 -10
-830 -10 -1067 l0 -433 59 0 58 0 7 228 c4 125 13 553 21 952 8 399 19 905 24
1125 6 220 11 542 13 715 3 360 15 322 -98 311z"/>
<path d="M6326 4559 c-3 -34 -6 -141 -6 -238 -1 -166 -5 -296 -30 -931 -5
-146 -15 -436 -20 -645 -5 -209 -17 -571 -25 -805 -8 -234 -15 -478 -15 -542
l0 -118 29 0 c16 0 42 3 59 6 l30 6 6 122 c7 136 23 503 36 831 10 254 25 579
45 1020 8 171 19 425 25 565 23 571 31 736 36 763 l6 27 -85 0 -84 0 -7 -61z"/>
</g>
</svg>
